<svg width="16" height="16" viewBox="0 0 16 16" fill="none" xmlns="http://www.w3.org/2000/svg">
<g clip-path="url(#clip0_2146_238)">
<path d="M7.99475 1.99854H3.33112C2.97773 1.99854 2.63881 2.13892 2.38893 2.38881C2.13904 2.63869 1.99866 2.97761 1.99866 3.331V12.6583C1.99866 13.0116 2.13904 13.3506 2.38893 13.6005C2.63881 13.8503 2.97773 13.9907 3.33112 13.9907H12.6584C13.0118 13.9907 13.3507 13.8503 13.6006 13.6005C13.8505 13.3506 13.9908 13.0116 13.9908 12.6583V7.99463" stroke="white" stroke-width="1.33247" stroke-linecap="round" stroke-linejoin="round"/>
<path d="M12.242 1.7489C12.507 1.48386 12.8665 1.33496 13.2413 1.33496C13.6162 1.33496 13.9756 1.48386 14.2407 1.7489C14.5057 2.01395 14.6546 2.37343 14.6546 2.74825C14.6546 3.12308 14.5057 3.48256 14.2407 3.7476L8.23592 9.75302C8.07772 9.91109 7.88229 10.0268 7.66762 10.0895L5.75354 10.6491C5.69621 10.6658 5.63544 10.6668 5.57759 10.652C5.51974 10.6372 5.46694 10.6071 5.42472 10.5649C5.38249 10.5226 5.35239 10.4698 5.33757 10.412C5.32275 10.3541 5.32375 10.2934 5.34047 10.236L5.90011 8.32196C5.96309 8.10746 6.07901 7.91226 6.23722 7.75433L12.242 1.7489Z" stroke="white" stroke-width="1.33247" stroke-linecap="round" stroke-linejoin="round"/>
</g>
<defs>
<clipPath id="clip0_2146_238">
<rect width="15.9896" height="15.9896" fill="white"/>
</clipPath>
</defs>
</svg>
